<?xml version="1.0" standalone="no"?>
<!DOCTYPE svg PUBLIC "-//W3C//DTD SVG 20010904//EN"
 "http://www.w3.org/TR/2001/REC-SVG-20010904/DTD/svg10.dtd">
<svg version="1.0" xmlns="http://www.w3.org/2000/svg"
 width="450.000000pt" height="450.000000pt" viewBox="0 0 450.000000 450.000000"
 preserveAspectRatio="xMidYMid meet">
<metadata>
Created by potrace 1.14, written by Peter Selinger 2001-2017
</metadata>
<g transform="translate(0.000000,450.000000) scale(0.100000,-0.100000)"
fill="#000000" stroke="none">
<path d="M365 4431 c-164 -48 -257 -143 -299 -308 -14 -54 -16 -257 -16 -1873
0 -1616 2 -1819 16 -1873 43 -169 139 -264 315 -314 61 -17 152 -18 1869 -18
1717 0 1808 1 1869 18 176 50 268 142 318 318 17 61 18 152 18 1869 0 1717 -1
1808 -18 1869 -50 176 -145 272 -314 315 -54 14 -256 16 -1879 15 -1701 0
-1823 -2 -1879 -18z m1591 -829 l183 -383 -111 3 -111 3 -117 248 c-64 137
-121 249 -126 250 -4 1 -62 -112 -128 -250 l-120 -253 -108 0 -108 0 19 38
c10 20 83 172 161 337 78 165 153 322 167 348 l24 48 96 -3 97 -3 182 -383z
m996 317 c253 -53 397 -337 288 -568 -16 -33 -48 -80 -71 -106 l-42 -45 41
-44 c54 -59 88 -129 102 -210 32 -180 -70 -376 -237 -454 l-58 -27 -645 -5
c-721 -6 -687 -2 -749 -77 -83 -101 -56 -254 57 -320 l47 -28 476 -5 475 -5
75 -37 c93 -46 158 -112 202 -206 30 -63 32 -73 32 -182 0 -110 -1 -118 -34
-188 -43 -92 -132 -179 -218 -213 -57 -23 -65 -24 -528 -29 -514 -6 -508 -5
-568 -66 -107 -107 -77 -284 58 -345 37 -17 82 -19 653 -19 l612 0 0 -115 0
-115 -572 0 c-327 0 -603 5 -642 10 -123 18 -214 71 -283 163 -97 133 -111
334 -34 486 53 102 172 189 290 211 30 6 237 10 476 10 297 0 432 3 456 12 87
30 142 106 142 197 0 62 -16 101 -60 145 -60 61 -54 61 -569 66 l-470 5 -75
37 c-93 46 -158 113 -201 205 -43 91 -51 227 -19 331 35 118 127 218 241 265
54 22 61 22 680 27 607 5 626 6 660 25 109 65 133 224 47 321 -58 67 -67 69
-324 72 l-233 4 0 108 0 109 243 3 244 3 40 27 c95 62 110 211 30 296 -51 55
-61 57 -354 60 l-273 4 0 109 0 109 270 0 c158 0 291 -5 322 -11z"/>
</g>
</svg>
