<?xml version="1.0" standalone="no"?>
<!DOCTYPE svg PUBLIC "-//W3C//DTD SVG 20010904//EN"
 "http://www.w3.org/TR/2001/REC-SVG-20010904/DTD/svg10.dtd">
<svg version="1.0" xmlns="http://www.w3.org/2000/svg"
 width="450.000000pt" height="450.000000pt" viewBox="0 0 450.000000 450.000000"
 preserveAspectRatio="xMidYMid meet">
<metadata>
Created by potrace 1.14, written by Peter Selinger 2001-2017
</metadata>
<g transform="translate(0.000000,450.000000) scale(0.100000,-0.100000)"
fill="#000000" stroke="none">
<path d="M1954 4435 c-872 -119 -1597 -754 -1830 -1604 -100 -366 -100 -796 0
-1162 226 -822 901 -1437 1751 -1592 103 -19 156 -22 375 -22 287 0 390 13
616 79 732 213 1308 798 1509 1533 102 369 102 797 0 1166 -233 850 -962 1487
-1836 1602 -136 18 -454 18 -585 0z m2 -833 l183 -383 -111 3 -111 3 -117 248
c-64 137 -121 249 -126 250 -4 1 -62 -112 -128 -250 l-120 -253 -108 0 -108 0
19 38 c10 20 83 172 161 337 78 165 153 322 167 348 l24 48 96 -3 97 -3 182
-383z m996 317 c253 -53 397 -337 288 -568 -16 -33 -48 -80 -71 -106 l-42 -45
41 -44 c54 -59 88 -129 102 -210 32 -180 -70 -376 -237 -454 l-58 -27 -645 -5
c-721 -6 -687 -2 -749 -77 -83 -101 -56 -254 57 -320 l47 -28 476 -5 475 -5
75 -37 c93 -46 158 -112 202 -206 30 -63 32 -73 32 -182 0 -110 -1 -118 -34
-188 -43 -92 -132 -179 -218 -213 -57 -23 -65 -24 -528 -29 -514 -6 -508 -5
-568 -66 -107 -107 -77 -284 58 -345 37 -17 82 -19 653 -19 l612 0 0 -115 0
-115 -572 0 c-327 0 -603 5 -642 10 -123 18 -214 71 -283 163 -97 133 -111
334 -34 486 53 102 172 189 290 211 30 6 237 10 476 10 297 0 432 3 456 12 87
30 142 106 142 197 0 62 -16 101 -60 145 -60 61 -54 61 -569 66 l-470 5 -75
37 c-93 46 -158 113 -201 205 -43 91 -51 227 -19 331 35 118 127 218 241 265
54 22 61 22 680 27 607 5 626 6 660 25 109 65 133 224 47 321 -58 67 -67 69
-324 72 l-233 4 0 108 0 109 243 3 244 3 40 27 c95 62 110 211 30 296 -51 55
-61 57 -354 60 l-273 4 0 109 0 109 270 0 c158 0 291 -5 322 -11z"/>
</g>
</svg>
