<?xml version="1.0" standalone="no"?>
<!DOCTYPE svg PUBLIC "-//W3C//DTD SVG 20010904//EN"
 "http://www.w3.org/TR/2001/REC-SVG-20010904/DTD/svg10.dtd">
<svg version="1.0" xmlns="http://www.w3.org/2000/svg"
 width="600.000000pt" height="600.000000pt" viewBox="0 0 600.000000 600.000000"
 preserveAspectRatio="xMidYMid meet">
<metadata>
Created by potrace 1.11, written by Peter Selinger 2001-2013
</metadata>
<g transform="translate(0.000000,600.000000) scale(0.100000,-0.100000)"
fill="#000000" stroke="none">
<path d="M458 5805 c-2 -2 -26 -7 -53 -11 -28 -3 -77 -19 -111 -34 -112 -50
-175 -142 -198 -288 -9 -58 -11 -547 -11 -1997 1 -1774 3 -1925 18 -1984 33
-123 88 -196 182 -240 94 -44 110 -45 1135 -45 l975 -1 -1 -40 c-2 -184 -22
-366 -46 -440 -40 -124 -89 -174 -278 -287 -150 -90 -205 -130 -221 -160 -16
-30 -3 -65 28 -75 16 -4 535 -8 1155 -7 907 0 1130 3 1142 13 21 18 20 74 -1
94 -16 14 -151 98 -293 183 -72 42 -145 120 -176 188 -34 75 -42 124 -60 400
-4 55 -7 107 -8 115 -1 14 107 16 969 17 534 0 984 4 1001 7 80 17 165 58 206
101 50 53 90 141 103 231 10 73 6 3916 -4 3972 -21 109 -82 193 -173 239 -111
56 43 53 -2724 53 -1403 0 -2553 -2 -2556 -4z m4992 -530 c0 -27 1 -750 2
-1605 l3 -1555 -2446 0 -2446 0 2 1605 c1 883 2 1605 3 1605 1 0 1100 0 2442
0 l2440 0 0 -50z"/>
<path d="M1208 4939 l-31 -30 7 -87 c3 -48 8 -94 9 -102 2 -8 8 -37 12 -65 5
-27 10 -52 10 -55 1 -3 5 -18 9 -35 90 -350 242 -569 521 -753 59 -40 112 -72
117 -72 24 0 -2 -23 -89 -80 -54 -35 -103 -69 -109 -74 -6 -6 -26 -22 -44 -36
-157 -117 -297 -332 -369 -565 -54 -178 -86 -409 -62 -453 23 -44 93 -60 128
-30 29 24 36 48 48 163 3 33 8 69 10 80 2 11 4 26 4 33 1 9 42 12 170 12 l168
0 37 -35 c30 -28 45 -35 78 -35 98 0 157 90 118 178 -22 48 -62 72 -121 72
-34 0 -47 -6 -76 -35 l-35 -35 -155 0 -155 0 7 33 c10 42 81 209 94 216 5 4
55 6 112 5 94 0 103 -2 120 -23 23 -28 84 -51 119 -44 60 10 101 59 102 122 0
47 -21 84 -63 110 -26 16 -40 18 -102 13 -10 -1 -31 -16 -47 -33 -26 -29 -34
-32 -94 -33 -40 -1 -66 3 -66 10 0 31 189 192 305 260 27 16 57 34 66 39 9 6
34 20 56 32 l39 21 47 -29 c26 -16 49 -29 52 -29 2 0 52 -32 109 -70 105 -71
265 -214 253 -226 -3 -4 -34 -6 -69 -5 -55 1 -65 5 -91 31 -16 17 -34 31 -41
31 -83 8 -123 -5 -152 -50 -27 -40 -24 -114 7 -147 27 -29 66 -50 89 -48 8 1
26 2 38 3 13 0 39 16 57 34 32 32 33 32 133 33 l101 0 27 -55 c21 -44 74 -184
74 -198 0 -2 -72 -3 -159 -2 -126 1 -161 4 -165 15 -9 23 -69 54 -106 54 -39
0 -93 -29 -108 -57 -61 -115 54 -237 168 -178 16 8 34 24 40 35 10 19 19 20
182 18 l172 -3 7 -29 c5 -17 11 -64 14 -105 9 -106 19 -135 58 -153 40 -19 75
-14 104 15 26 26 33 68 22 136 -4 26 -10 71 -13 100 -3 29 -8 56 -10 59 -2 4
-7 23 -10 42 -24 145 -102 334 -195 475 -83 126 -244 271 -407 365 l-61 35 96
58 c121 74 182 121 261 201 150 153 255 365 309 622 37 179 42 280 17 318 -22
34 -75 44 -115 20 -38 -22 -48 -49 -56 -144 -4 -41 -10 -91 -14 -110 l-7 -35
-164 0 -163 -1 -40 33 c-40 34 -50 37 -102 34 -82 -4 -135 -99 -97 -177 18
-40 81 -76 119 -70 15 2 33 5 39 5 7 1 25 15 42 32 l31 32 151 -1 c83 0 153
-2 156 -5 7 -6 -23 -90 -61 -174 l-34 -73 -110 0 c-100 0 -111 2 -121 20 -34
63 -161 61 -204 -4 -34 -52 -24 -128 22 -169 47 -43 129 -38 172 10 23 26 32
29 93 29 37 0 67 -3 67 -6 0 -13 -118 -125 -176 -166 -78 -56 -271 -174 -284
-174 -15 0 -198 111 -266 160 -60 44 -204 178 -204 190 0 3 32 6 71 6 56 -1
72 -5 80 -19 12 -20 55 -44 92 -51 38 -7 103 30 121 69 20 41 20 66 2 110 -19
44 -57 68 -114 71 -40 2 -49 -1 -80 -32 l-34 -34 -104 0 -104 0 -25 49 c-26
52 -75 177 -75 192 0 5 71 9 159 9 157 0 159 0 174 -24 20 -30 78 -50 120 -42
91 18 130 126 73 201 -47 62 -136 65 -191 7 l-26 -28 -167 1 -166 0 -7 28 c-4
15 -10 56 -14 90 -4 34 -8 78 -10 97 -5 42 -53 90 -91 90 -15 0 -38 -12 -56
-31z"/>
<path d="M3245 4370 c-67 -11 -101 -68 -76 -129 24 -57 -3 -55 820 -56 416 0
769 3 786 7 42 11 66 40 70 83 3 31 -1 43 -25 66 -16 16 -37 29 -47 30 -69 4
-1504 3 -1528 -1z"/>
<path d="M3189 3781 c-31 -31 -36 -64 -18 -104 25 -56 -3 -54 841 -53 l778 1
24 25 c44 45 41 103 -8 142 -19 16 -77 18 -804 18 l-784 0 -29 -29z"/>
<path d="M3210 3235 c-55 -29 -64 -110 -19 -151 20 -18 45 -19 422 -22 281 -2
409 1 428 9 40 16 63 70 50 112 -22 67 -25 67 -463 67 -315 -1 -398 -4 -418
-15z"/>
</g>
</svg>
